<?xml version="1.0" encoding="UTF-8" standalone="no"?>
<!DOCTYPE svg PUBLIC "-//W3C//DTD SVG 1.1//EN" "http://www.w3.org/Graphics/SVG/1.1/DTD/svg11.dtd">
<svg width="100%" height="100%" viewBox="0 0 1381 1378" version="1.1" xmlns="http://www.w3.org/2000/svg" xmlns:xlink="http://www.w3.org/1999/xlink" xml:space="preserve" xmlns:serif="http://www.serif.com/" style="fill-rule:evenodd;clip-rule:evenodd;stroke-linejoin:round;stroke-miterlimit:2;">
    <g transform="matrix(1,0,0,1,-548.304,-552.788)">
        <g id="Ebene-1" serif:id="Ebene 1" transform="matrix(4.16667,0,0,4.16667,0,0)">
            <g transform="matrix(-43.8205,178.675,392.544,96.2727,342.486,170.617)">
                <path d="M0.289,-0.366C0.605,-0.429 0.879,-0.373 0.909,-0.367C0.701,-0.374 0.49,-0.34 0.337,-0.274C0.229,-0.227 0.156,-0.167 0.121,-0.101C0.056,0.02 0.218,0.142 0.484,0.171C0.666,0.192 0.862,0.162 0.982,0.097C1.091,0.037 1.133,-0.049 1.041,-0.118C0.937,-0.196 0.715,-0.221 0.544,-0.174C0.48,-0.156 0.433,-0.131 0.403,-0.103C0.436,-0.14 0.491,-0.173 0.561,-0.198C0.68,-0.239 0.836,-0.254 0.981,-0.238C1.218,-0.212 1.372,-0.112 1.358,-0.005C1.346,0.079 1.239,0.162 1.099,0.216C0.967,0.268 0.797,0.298 0.623,0.3C0.599,0.3 0.576,0.3 0.552,0.299C0.552,0.299 0.845,0.368 1.175,0.299C0.996,0.363 0.756,0.391 0.518,0.364C0.279,0.338 0.095,0.263 0.002,0.168C-0.14,0.087 -0.2,-0.022 -0.142,-0.131C-0.083,-0.24 0.081,-0.324 0.289,-0.366Z" style="fill:url(#_Radial1);fill-rule:nonzero;"/>
            </g>
            <g transform="matrix(62.5901,-217.781,-400.79,-115.187,268.217,417.999)">
                <path d="M0.847,0.252C0.718,0.314 0.545,0.342 0.376,0.332C0.4,0.339 0.619,0.398 0.879,0.342C0.881,0.342 0.882,0.341 0.883,0.341L0.883,0.341C0.734,0.401 0.536,0.425 0.344,0.395C0.152,0.365 0.008,0.289 -0.061,0.196C-0.17,0.114 -0.211,0.008 -0.156,-0.097C-0.101,-0.201 0.036,-0.28 0.208,-0.317C0.48,-0.378 0.713,-0.307 0.713,-0.307C0.694,-0.308 0.675,-0.308 0.656,-0.309C0.514,-0.31 0.374,-0.283 0.263,-0.236C0.146,-0.186 0.053,-0.108 0.038,-0.026C0.019,0.078 0.137,0.177 0.327,0.206C0.444,0.224 0.572,0.213 0.67,0.175C0.728,0.152 0.774,0.122 0.803,0.087C0.813,0.078 0.821,0.067 0.826,0.056C0.871,-0.028 0.781,-0.116 0.626,-0.141C0.47,-0.165 0.308,-0.116 0.263,-0.032C0.261,-0.027 0.259,-0.023 0.258,-0.019C0.27,-0.055 0.303,-0.09 0.35,-0.118C0.452,-0.179 0.613,-0.205 0.759,-0.182C0.972,-0.148 1.096,-0.027 1.034,0.089C1.034,0.089 1.034,0.09 1.034,0.09C1.001,0.153 0.938,0.209 0.847,0.252Z" style="fill:url(#_Radial2);fill-rule:nonzero;"/>
            </g>
        </g>
    </g>
    <defs>
        <radialGradient id="_Radial1" cx="0" cy="0" r="1" gradientUnits="userSpaceOnUse" gradientTransform="matrix(1.10163,-0.00447958,-0.00410537,-1.0096,-0.101626,-0.033896)"><stop offset="0" style="stop-color:rgb(255,200,60);stop-opacity:1"/><stop offset="0.18" style="stop-color:rgb(255,200,60);stop-opacity:1"/><stop offset="0.96" style="stop-color:rgb(255,0,132);stop-opacity:1"/><stop offset="1" style="stop-color:rgb(255,0,132);stop-opacity:1"/></radialGradient>
        <radialGradient id="_Radial2" cx="0" cy="0" r="1" gradientUnits="userSpaceOnUse" gradientTransform="matrix(1.1116,-0.0061802,-0.00562831,-1.01233,-0.111599,0.0522357)"><stop offset="0" style="stop-color:rgb(76,215,210);stop-opacity:1"/><stop offset="0.22" style="stop-color:rgb(76,215,210);stop-opacity:1"/><stop offset="1" style="stop-color:rgb(42,63,215);stop-opacity:1"/><stop offset="1" style="stop-color:rgb(42,63,215);stop-opacity:1"/></radialGradient>
    </defs>
</svg>
